<?xml version="1.0" encoding="UTF-8"?>
<svg version="1.1" xmlns="http://www.w3.org/2000/svg" width="249" height="234">
<path d="M0 0 C82.17 0 164.34 0 249 0 C249 77.22 249 154.44 249 234 C166.83 234 84.66 234 0 234 C0 156.78 0 79.56 0 0 Z " fill="#FDFDFE" transform="translate(0,0)"/>
<path d="M0 0 C2.4921875 2.1015625 2.4921875 2.1015625 3.4921875 4.1015625 C-0.86735869 2.72521031 -4.9683958 1.04523004 -9.1328125 -0.8359375 C-18.61580578 -4.98946841 -28.16315209 -7.41145634 -38.5078125 -7.8984375 C-39.62800781 -7.95128906 -40.74820313 -8.00414062 -41.90234375 -8.05859375 C-67.9504839 -8.68593116 -91.30449849 0.57193182 -110.5078125 18.1015625 C-127.14508966 34.27211737 -138.13942665 56.67339579 -138.67578125 80.01953125 C-138.92321988 107.65451921 -131.79973881 130.0305907 -113.5078125 151.1015625 C-117.67421469 151.1015625 -119.39187677 148.82446796 -122.2578125 146.1015625 C-122.79567383 145.59608887 -123.33353516 145.09061523 -123.88769531 144.56982422 C-141.37321164 127.96438059 -152.98442632 105.6721408 -153.74609375 81.29296875 C-154.21289626 53.5234528 -147.11623989 29.41643678 -127.4609375 9.0234375 C-93.12644066 -25.49344711 -38.8859356 -29.64934323 0 0 Z " fill="#1C70B6" transform="translate(172.5078125,36.8984375)"/>
<path d="M0 0 C-1.34191406 0.61875 -1.34191406 0.61875 -2.7109375 1.25 C-10.66585608 5.01277473 -17.32964309 9.18450832 -24 15 C-24.91652344 15.70189453 -24.91652344 15.70189453 -25.8515625 16.41796875 C-41.44283299 28.55637797 -50.24112799 49.53990592 -53.62109375 68.48046875 C-54.04822369 72.44793349 -54.15201761 76.32605108 -54.125 80.3125 C-54.12016602 81.06378174 -54.11533203 81.81506348 -54.11035156 82.58911133 C-53.86345306 105.46919578 -45.70705488 126.19777432 -30 143 C-29.39027344 143.69996094 -28.78054687 144.39992187 -28.15234375 145.12109375 C-19.04638363 155.03905031 -6.51917734 161.50348325 6 166 C7.13953125 166.41378906 8.2790625 166.82757813 9.453125 167.25390625 C22.65485241 171.28464643 36.3338628 170.37449364 50 170 C46.95501081 172.02999279 44.83154934 172.70188742 41.3125 173.5625 C40.31863281 173.81128906 39.32476562 174.06007812 38.30078125 174.31640625 C13.89322802 179.37122497 -10.53541597 174.94545118 -31.453125 161.4921875 C-37.1929282 157.59174452 -42.13492294 152.92413717 -47 148 C-47.65355469 147.35675781 -48.30710937 146.71351563 -48.98046875 146.05078125 C-64.91820626 129.23774465 -71.57259497 105.72459608 -71.35131836 83.00610352 C-70.61920962 57.92308888 -59.43106061 37.18217253 -41.8203125 19.85546875 C-33.44079272 12.0574459 -12.34183446 -4.11394482 0 0 Z " fill="#425368" transform="translate(122,37)"/>
<path d="M0 0 C2.68629463 2.67139835 5.35177886 5.35781123 7.98046875 8.0859375 C14.20226929 14.50005527 20.27870344 20.38960263 28 25 C29.09570312 25.65484375 30.19140625 26.3096875 31.3203125 26.984375 C54.17824559 40.11802716 80.14592653 44.32587172 106 39 C106.95777344 38.81695312 107.91554688 38.63390625 108.90234375 38.4453125 C121.90791147 35.61725616 139.88676479 29.05180761 149 19 C149.66 19.33 150.32 19.66 151 20 C138.06799713 34.16362219 121.76525775 44.52520777 103 49 C102.37262939 49.16701416 101.74525879 49.33402832 101.09887695 49.50610352 C77.94296794 55.28928986 54.01110325 49.65134055 33.6875 38.125 C19.62815756 29.16745908 7.87654438 16.75843982 0 2 C0 1.34 0 0.68 0 0 Z " fill="#2274B8" transform="translate(86,144)"/>
<path d="M0 0 C2.64 0 5.28 0 8 0 C7.34 6.6 6.68 13.2 6 20 C7.11375 18.68 8.2275 17.36 9.375 16 C11.85783825 13.47266644 13.2505397 12.14437196 16.7578125 11.46875 C19.21676247 11.49677222 21.5683742 11.64123554 24 12 C20.6189962 16.13621084 17.33409466 19.81316569 13 23 C13.62197284 26.92486308 14.84942375 30.11005017 16.5625 33.6875 C19 38.79036827 19 38.79036827 19 41 C16.36 41 13.72 41 11 41 C10.32880451 39.5437455 9.66318193 38.08492133 9 36.625 C8.62875 35.81289062 8.2575 35.00078125 7.875 34.1640625 C7 32 7 32 7 30 C5.35 30.66 3.7 31.32 2 32 C2.020625 33.11375 2.04125 34.2275 2.0625 35.375 C2 39 2 39 1 41 C-1.31 41 -3.62 41 -6 41 C-5.43271233 31.78991781 -4.06587202 22.82691967 -2.4375 13.75 C-2.20067957 12.40763884 -1.96434872 11.06519122 -1.72851562 9.72265625 C-1.15712556 6.48089221 -0.58087103 3.24007618 0 0 Z " fill="#45566A" transform="translate(159,92)"/>
<path d="M0 0 C3.53607066 3.97807949 3.07861545 7.01652936 2.84375 12.1953125 C2.31291226 17.78117331 1.51151559 23.29432119 0.5 28.8125 C-2.5 28.8125 -5.5 28.8125 -8.5 28.8125 C-9.16 29.1425 -9.82 29.4725 -10.5 29.8125 C-14.79322859 30.29852588 -16.82082639 30.27491608 -20.4375 27.8125 C-22.72165334 24.49009514 -23.29812804 22.70031403 -23.06640625 18.74609375 C-22.01061391 15.14183715 -19.56278308 13.83393683 -16.5 11.8125 C-13.97524538 10.55012269 -12.18799534 10.71393596 -9.375 10.75 C-8.46492188 10.75902344 -7.55484375 10.76804687 -6.6171875 10.77734375 C-5.56917969 10.79474609 -5.56917969 10.79474609 -4.5 10.8125 C-4.83 9.1625 -5.16 7.5125 -5.5 5.8125 C-7.91645782 5.64562552 -7.91645782 5.64562552 -10.5 5.8125 C-11.16 6.4725 -11.82 7.1325 -12.5 7.8125 C-16.125 7.9375 -16.125 7.9375 -19.5 7.8125 C-19.4375 5.5625 -19.4375 5.5625 -18.5 2.8125 C-12.33193635 -1.84501745 -7.4379759 -2.52359897 0 0 Z " fill="#445569" transform="translate(124.5,104.1875)"/>
<path d="M0 0 C9.9 0 19.8 0 30 0 C30 2.31 30 4.62 30 7 C26.04 7 22.08 7 18 7 C17.83564453 8.4540625 17.83564453 8.4540625 17.66796875 9.9375 C16.52404841 19.7186339 14.92611623 29.34373728 13 39 C10.36 39 7.72 39 5 39 C5.44300264 28.10213508 7.73979616 17.63872691 10 7 C6.37 7 2.74 7 -1 7 C-0.67 4.69 -0.34 2.38 0 0 Z " fill="#46576B" transform="translate(76,94)"/>
<path d="M0 0 C3.67688817 1.63417252 5.94159485 3.53321238 8 7 C8 7.99 8 8.98 8 10 C5.36 10 2.72 10 0 10 C-0.33 9.01 -0.66 8.02 -1 7 C-2.98 7 -4.96 7 -7 7 C-7 8.32 -7 9.64 -7 11 C-6.31292969 11.24234375 -5.62585938 11.4846875 -4.91796875 11.734375 C-4.01691406 12.06953125 -3.11585938 12.4046875 -2.1875 12.75 C-1.29417969 13.07484375 -0.40085938 13.3996875 0.51953125 13.734375 C3.3000265 15.15308439 4.47070874 16.2970666 6 19 C6 22.5 6 22.5 5 26 C1.25476245 29.74523755 -1.58936954 30.90899158 -6.875 31.25 C-10.68057279 31.20103123 -12.96255591 30.41208795 -16 28 C-18 25 -18 25 -18 21 C-15.69 21 -13.38 21 -11 21 C-10.67 22.32 -10.34 23.64 -10 25 C-6.535 24.505 -6.535 24.505 -3 24 C-3 22.68 -3 21.36 -3 20 C-4.04800781 19.61908203 -4.04800781 19.61908203 -5.1171875 19.23046875 C-6.02726563 18.88628906 -6.93734375 18.54210937 -7.875 18.1875 C-8.77992188 17.85105469 -9.68484375 17.51460937 -10.6171875 17.16796875 C-13 16 -13 16 -15 13 C-15.4375 9.625 -15.4375 9.625 -15 6 C-10.48807847 0.53820025 -6.99187132 -0.75297076 0 0 Z " fill="#46576B" transform="translate(146,103)"/>
<path d="M0 0 C1.98 0 3.96 0 6 0 C6.34933594 0.85464844 6.69867188 1.70929688 7.05859375 2.58984375 C7.51363281 3.69457031 7.96867187 4.79929688 8.4375 5.9375 C9.11619141 7.59072266 9.11619141 7.59072266 9.80859375 9.27734375 C10.74424608 11.86568916 10.74424608 11.86568916 12 13 C12.27714844 12.14535156 12.55429688 11.29070312 12.83984375 10.41015625 C13.20207031 9.30542969 13.56429687 8.20070312 13.9375 7.0625 C14.29714844 5.96035156 14.65679687 4.85820312 15.02734375 3.72265625 C16 1 16 1 17 0 C18.98 0 20.96 0 23 0 C23 7.26 23 14.52 23 22 C21.68 22 20.36 22 19 22 C18.505 15.565 18.505 15.565 18 9 C16.35 13.29 14.7 17.58 13 22 C12.01 22 11.02 22 10 22 C8.68 18.37 7.36 14.74 6 11 C5.67 14.63 5.34 18.26 5 22 C3.35 22 1.7 22 0 22 C0 14.74 0 7.48 0 0 Z " fill="#2877BC" transform="translate(114,141)"/>
<path d="M0 0 C0.99386719 0.02707031 1.98773438 0.05414063 3.01171875 0.08203125 C4.15060547 0.13423828 4.15060547 0.13423828 5.3125 0.1875 C5.42056144 3.10515891 5.49982877 6.01881125 5.5625 8.9375 C5.61277344 10.175 5.61277344 10.175 5.6640625 11.4375 C5.76249222 17.54014277 5.76249222 17.54014277 3.53125 20.75 C0.4167572 22.7678404 -2.06254812 22.46634245 -5.6875 22.1875 C-6.3475 20.8675 -7.0075 19.5475 -7.6875 18.1875 C-5.0208581 16.85417905 -3.52069697 17.51647967 -0.6875 18.1875 C-0.0275 17.1975 0.6325 16.2075 1.3125 15.1875 C-0.9975 15.5175 -3.3075 15.8475 -5.6875 16.1875 C-8.4716273 13.51937801 -8.95335934 11.34790925 -9.0625 7.625 C-9.08920542 4.98561429 -8.98277061 3.63386225 -7.51953125 1.421875 C-4.94843039 -0.31046588 -3.06700796 -0.10824734 0 0 Z " fill="#2372B9" transform="translate(198.6875,146.8125)"/>
<path d="M0 0 C2.1796875 1.09765625 2.1796875 1.09765625 4 3 C4.390625 6.13671875 4.390625 6.13671875 4.25 9.6875 C4.21390625 10.86699219 4.1778125 12.04648438 4.140625 13.26171875 C4.07101563 14.61716797 4.07101563 14.61716797 4 16 C2.22992286 16.08114106 0.45877902 16.13925505 -1.3125 16.1875 C-2.29863281 16.22230469 -3.28476563 16.25710937 -4.30078125 16.29296875 C-7 16 -7 16 -8.8671875 14.6484375 C-10 13 -10 13 -9.8125 10.4375 C-9 8 -9 8 -7 6 C-3.875 5.875 -3.875 5.875 -1 6 C-1 5.01 -1 4.02 -1 3 C-3.64 3.33 -6.28 3.66 -9 4 C-8.67 3.01 -8.34 2.02 -8 1 C-5.19084526 -0.40457737 -3.11189466 -0.24895157 0 0 Z " fill="#2378BD" transform="translate(150,147)"/>
<path d="M0 0 C1.7109375 1.09765625 1.7109375 1.09765625 3 3 C3.29296875 6.13671875 3.29296875 6.13671875 3.1875 9.6875 C3.16042969 10.86699219 3.13335937 12.04648438 3.10546875 13.26171875 C3.07066406 14.16535156 3.03585938 15.06898438 3 16 C1.20866022 16.05391993 -0.58313899 16.09275571 -2.375 16.125 C-3.37273437 16.14820313 -4.37046875 16.17140625 -5.3984375 16.1953125 C-8 16 -8 16 -10 14 C-10.3125 11 -10.3125 11 -10 8 C-6.5647952 5.70986347 -5.014669 5.82157027 -1 6 C-1.33 5.34 -1.66 4.68 -2 4 C-4.64 4 -7.28 4 -10 4 C-9.67 3.01 -9.34 2.02 -9 1 C-5.95016004 -0.52491998 -3.3576631 -0.23562548 0 0 Z " fill="#2173B9" transform="translate(184,147)"/>
<path d="M0 0 C2.375 1.125 2.375 1.125 4 3 C4.25 6.1875 4.25 6.1875 4 9 C1.03 9 -1.94 9 -5 9 C-5 9.99 -5 10.98 -5 12 C-4.2575 12 -3.515 12 -2.75 12 C-0.5 12 1.75 12 4 12 C3 15 3 15 1 16 C-3.0130324 16.53507099 -4.53928033 16.33051628 -7.875 13.9375 C-10 11 -10 11 -10.5625 7.4375 C-10 4 -10 4 -8.375 1.5625 C-5.30182885 -0.45932313 -3.61752119 -0.52755517 0 0 Z " fill="#367DBD" transform="translate(217,147)"/>
<path d="M0 0 C10.38229695 -0.36643401 10.38229695 -0.36643401 12.84375 1.09375 C14.58186141 3.95928502 14.2858636 6.37592531 14.1875 9.6875 C14.16042969 10.86699219 14.13335937 12.04648438 14.10546875 13.26171875 C14.07066406 14.16535156 14.03585938 15.06898438 14 16 C12.35 16 10.7 16 9 16 C8.67 12.04 8.34 8.08 8 4 C6.68 4 5.36 4 4 4 C4 7.96 4 11.92 4 16 C2.68 16 1.36 16 0 16 C0 10.72 0 5.44 0 0 Z " fill="#377EBE" transform="translate(157,147)"/>
<path d="M0 0 C1.98 0 3.96 0 6 0 C6.33 1.32 6.66 2.64 7 4 C11.455 3.505 11.455 3.505 16 3 C16.89151887 6.56607547 17.07903829 7.74267783 16.44140625 11.109375 C16.30283203 11.86347656 16.16425781 12.61757812 16.02148438 13.39453125 C15.87001953 14.17183594 15.71855469 14.94914062 15.5625 15.75 C15.41490234 16.54277344 15.26730469 17.33554688 15.11523438 18.15234375 C14.75096034 20.10297246 14.37647488 22.0516893 14 24 C12.34656791 21.07765492 11.9997547 20.00686844 12.125 16.5 C12.30498729 13.05182547 12.30498729 13.05182547 10.5625 10.8125 C6.961282 8.26529702 3.08078016 6.63928776 -1 5 C-0.67 3.35 -0.34 1.7 0 0 Z " fill="#F5F6F7" transform="translate(139,109)"/>
<path d="M0 0 C2.97 0 5.94 0 9 0 C9 1.32 9 2.64 9 4 C7.35 4.33 5.7 4.66 4 5 C4 8.63 4 12.26 4 16 C2.68 16 1.36 16 0 16 C0 10.72 0 5.44 0 0 Z " fill="#296FB7" transform="translate(224,147)"/>
<path d="M0 0 C2.97 0.495 2.97 0.495 6 1 C6 1.99 6 2.98 6 4 C5.34 4 4.68 4 4 4 C4 7.96 4 11.92 4 16 C2.68 16 1.36 16 0 16 C0 10.72 0 5.44 0 0 Z " fill="#236EB6" transform="translate(157,147)"/>
<path d="M0 0 C1.670625 0.061875 1.670625 0.061875 3.375 0.125 C2.715 2.435 2.055 4.745 1.375 7.125 C-0.6164056 7.50633299 -2.61779077 7.83825582 -4.625 8.125 C-5.625 7.125 -5.625 7.125 -5.8125 4.6875 C-5.49798355 0.38910851 -4.1611078 0.14348648 0 0 Z " fill="#F7F8F9" transform="translate(115.625,119.875)"/>
<path d="M0 0 C2.125 0.375 2.125 0.375 4 1 C4 3.64 4 6.28 4 9 C2.125 9.625 2.125 9.625 0 10 C-2 8 -2 8 -2.25 5 C-2 2 -2 2 0 0 Z " fill="#EEEFF1" transform="translate(196,150)"/>
<path d="M0 0 C-2.269616 1.14829977 -4.54060778 2.29371978 -6.8125 3.4375 C-7.45509766 3.76298828 -8.09769531 4.08847656 -8.75976562 4.42382812 C-11.48265466 5.79232676 -14.10449794 7.03483265 -17 8 C-17 6.68 -17 5.36 -17 4 C-14.73291675 3.1344953 -12.46224921 2.28240685 -10.1875 1.4375 C-9.54490234 1.19064453 -8.90230469 0.94378906 -8.24023438 0.68945312 C-3.33984375 -1.11328125 -3.33984375 -1.11328125 0 0 Z " fill="#647383" transform="translate(122,37)"/>
<path d="M0 0 C2.45098556 0.39532025 4.63904279 1.21301426 7 2 C7 3.32 7 4.64 7 6 C5.35 6.33 3.7 6.66 2 7 C1.67 5.35 1.34 3.7 1 2 C-0.32 3.65 -1.64 5.3 -3 7 C-2.25 2.25 -2.25 2.25 0 0 Z " fill="#6083BA" transform="translate(143,153)"/>
<path d="M0 0 C1 3 1 3 1 5 C2.32 5.66 3.64 6.32 5 7 C4.67 7.66 4.34 8.32 4 9 C1.625 9.125 1.625 9.125 -1 9 C-1.66 8.34 -2.32 7.68 -3 7 C-2.67028521 3.70285207 -2.3773161 2.3773161 0 0 Z " fill="#1B70B7" transform="translate(144,154)"/>
<path d="M0 0 C0.66 0.33 1.32 0.66 2 1 C-0.97 3.97 -3.94 6.94 -7 10 C-8.32 9.34 -9.64 8.68 -11 8 C-10.28972656 7.50628906 -9.57945312 7.01257813 -8.84765625 6.50390625 C-7.92855469 5.86324219 -7.00945312 5.22257813 -6.0625 4.5625 C-5.14597656 3.92441406 -4.22945312 3.28632813 -3.28515625 2.62890625 C-1.13879294 1.1939118 -1.13879294 1.1939118 0 0 Z " fill="#4E90C6" transform="translate(235,163)"/>
<path d="M0 0 C1.98 0 3.96 0 6 0 C5.67 1.32 5.34 2.64 5 4 C3.35 3.67 1.7 3.34 0 3 C0 2.01 0 1.02 0 0 Z " fill="#E9F1F6" transform="translate(212,156)"/>
<path d="M0 0 C0 1.32 0 2.64 0 4 C-1.32 4.33 -2.64 4.66 -4 5 C-4.33 3.68 -4.66 2.36 -5 1 C-3 0 -3 0 0 0 Z " fill="#E2E3E9" transform="translate(183,155)"/>
<path d="M0 0 C3.42227589 1.25483449 5.54080489 3.3651481 8 6 C4.08788267 4.84414715 1.1254959 3.64465038 -2 1 C-1.34 0.67 -0.68 0.34 0 0 Z " fill="#5091C7" transform="translate(168,35)"/>
<path d="M0 0 C-0.66 1.32 -1.32 2.64 -2 4 C-3.65 3.67 -5.3 3.34 -7 3 C-7 2.34 -7 1.68 -7 1 C-2.25 0 -2.25 0 0 0 Z " fill="#E6EBEE" transform="translate(200,162)"/>
<path d="M0 0 C1.32 0 2.64 0 4 0 C3.67 1.32 3.34 2.64 3 4 C1.68 3.67 0.36 3.34 -1 3 C-0.67 2.01 -0.34 1.02 0 0 Z " fill="#E1F0F4" transform="translate(145,156)"/>
</svg>
