<svg xmlns="http://www.w3.org/2000/svg" xmlns:xlink="http://www.w3.org/1999/xlink" width="500" zoomAndPan="magnify" viewBox="0 0 375 374.999991" height="500" preserveAspectRatio="xMidYMid meet" version="1.2"><defs><clipPath id="9bd6f82e99"><path d="M 161 213 L 307.9375 213 L 307.9375 265 L 161 265 Z M 161 213 "/></clipPath></defs><g id="3113521561"><path style=" stroke:none;fill-rule:nonzero;fill:#3f4f65;fill-opacity:1;" d="M 238.644531 278.488281 C 241.261719 277.710938 243.808594 276.816406 246.292969 275.820312 C 203.367188 284.3125 160.246094 258.875 147.539062 216.089844 C 134.835938 173.308594 157.085938 128.457031 197.6875 112.144531 C 195.0625 112.664062 192.441406 113.304688 189.824219 114.082031 C 144.425781 127.5625 118.550781 175.296875 132.03125 220.695312 C 145.511719 266.09375 193.246094 291.96875 238.644531 278.488281 "/><path style=" stroke:none;fill-rule:nonzero;fill:#286fb9;fill-opacity:1;" d="M 132.398438 256.722656 C 134.675781 258.507812 137.011719 260.160156 139.394531 261.695312 C 105.726562 229.804688 101.265625 176.929688 130.449219 139.707031 C 159.636719 102.484375 212.050781 94.203125 251.050781 119.296875 C 248.992188 117.347656 246.832031 115.46875 244.554688 113.683594 C 205.058594 82.714844 147.929688 89.628906 116.957031 129.125 C 85.988281 168.625 92.898438 225.753906 132.398438 256.722656 "/><g clip-rule="nonzero" clip-path="url(#9bd6f82e99)"><path style=" stroke:none;fill-rule:nonzero;fill:#286fb9;fill-opacity:1;" d="M 216.914062 252.570312 C 193.488281 246.277344 174.222656 232.230469 161.121094 213.941406 C 171.449219 236.75 191.527344 254.925781 217.59375 261.929688 C 251.644531 271.085938 286.40625 258.625 307.324219 232.953125 C 283 253 249.667969 261.375 216.914062 252.570312 "/></g><g style="fill:#3f4f65;fill-opacity:1;"><g transform="translate(147.614057, 204.749987)"><path style="stroke:none" d="M 33.25 -31.125 L 22.171875 -31.125 L 16.78125 0 L 9.265625 0 L 14.65625 -31.125 L 3.6875 -31.125 L 4.796875 -37.359375 L 34.359375 -37.359375 Z M 33.25 -31.125 "/></g></g><g style="fill:#3f4f65;fill-opacity:1;"><g transform="translate(176.927055, 204.749987)"><path style="stroke:none" d="M 16.140625 0 C 15.921875 -0.695312 15.828125 -1.535156 15.859375 -2.515625 C 13.765625 -0.429688 11.40625 0.578125 8.78125 0.515625 C 6.34375 0.484375 4.320312 -0.304688 2.71875 -1.859375 C 1.125 -3.410156 0.378906 -5.320312 0.484375 -7.59375 C 0.609375 -10.625 1.878906 -12.945312 4.296875 -14.5625 C 6.710938 -16.175781 9.957031 -16.984375 14.03125 -16.984375 L 17.421875 -16.9375 L 17.78125 -18.609375 C 17.882812 -19.171875 17.910156 -19.707031 17.859375 -20.21875 C 17.773438 -21.019531 17.472656 -21.644531 16.953125 -22.09375 C 16.429688 -22.550781 15.738281 -22.789062 14.875 -22.8125 C 13.75 -22.84375 12.789062 -22.5625 12 -21.96875 C 11.21875 -21.382812 10.71875 -20.535156 10.5 -19.421875 L 3.234375 -19.390625 C 3.347656 -22.046875 4.5625 -24.195312 6.875 -25.84375 C 9.195312 -27.5 12.0625 -28.3125 15.46875 -28.28125 C 18.613281 -28.207031 21.078125 -27.269531 22.859375 -25.46875 C 24.640625 -23.664062 25.382812 -21.34375 25.09375 -18.5 L 22.96875 -5.203125 L 22.828125 -3.5625 C 22.796875 -2.351562 22.941406 -1.328125 23.265625 -0.484375 L 23.25 0 Z M 10.578125 -5.109375 C 12.660156 -5.035156 14.476562 -5.941406 16.03125 -7.828125 L 16.9375 -12.625 L 14.421875 -12.65625 C 11.753906 -12.582031 9.828125 -11.769531 8.640625 -10.21875 C 8.210938 -9.644531 7.945312 -8.953125 7.84375 -8.140625 C 7.707031 -7.210938 7.898438 -6.476562 8.421875 -5.9375 C 8.953125 -5.394531 9.671875 -5.117188 10.578125 -5.109375 Z M 10.578125 -5.109375 "/></g></g><g style="fill:#3f4f65;fill-opacity:1;"><g transform="translate(202.033136, 204.749987)"><path style="stroke:none" d="M 16.171875 -7.828125 C 16.441406 -9.191406 15.488281 -10.179688 13.3125 -10.796875 L 10.984375 -11.390625 C 5.453125 -12.910156 2.765625 -15.597656 2.921875 -19.453125 C 3.003906 -22.066406 4.160156 -24.195312 6.390625 -25.84375 C 8.628906 -27.5 11.320312 -28.3125 14.46875 -28.28125 C 17.601562 -28.238281 20.132812 -27.40625 22.0625 -25.78125 C 24 -24.15625 24.984375 -21.992188 25.015625 -19.296875 L 17.828125 -19.3125 C 17.867188 -21.695312 16.691406 -22.90625 14.296875 -22.9375 C 13.160156 -22.9375 12.175781 -22.65625 11.34375 -22.09375 C 10.519531 -21.53125 10.015625 -20.769531 9.828125 -19.8125 C 9.566406 -18.4375 10.601562 -17.46875 12.9375 -16.90625 L 13.953125 -16.671875 C 16.316406 -16.109375 18.125 -15.460938 19.375 -14.734375 C 20.625 -14.015625 21.582031 -13.113281 22.25 -12.03125 C 22.925781 -10.957031 23.238281 -9.664062 23.1875 -8.15625 C 23.144531 -6.394531 22.578125 -4.851562 21.484375 -3.53125 C 20.398438 -2.21875 18.910156 -1.203125 17.015625 -0.484375 C 15.128906 0.234375 13.144531 0.566406 11.0625 0.515625 C 7.976562 0.484375 5.410156 -0.398438 3.359375 -2.140625 C 1.304688 -3.878906 0.265625 -6.125 0.234375 -8.875 L 7.0625 -8.828125 C 7.125 -6.171875 8.539062 -4.828125 11.3125 -4.796875 C 12.644531 -4.796875 13.742188 -5.066406 14.609375 -5.609375 C 15.472656 -6.160156 15.992188 -6.898438 16.171875 -7.828125 Z M 16.171875 -7.828125 "/></g></g><g style="fill:#3f4f65;fill-opacity:1;"><g transform="translate(226.010532, 204.749987)"><path style="stroke:none" d="M 12.078125 -11.0625 L 8.71875 -8.140625 L 7.3125 0 L 0.078125 0 L 6.90625 -39.40625 L 14.15625 -39.40625 L 10.421875 -18.015625 L 11.828125 -19.53125 L 20.0625 -27.765625 L 29.359375 -27.765625 L 17.21875 -15.828125 L 24.9375 0 L 17.015625 0 Z M 12.078125 -11.0625 "/></g></g><g style="fill:#286fb9;fill-opacity:1;"><g transform="translate(187.499992, 233.452528)"><path style="stroke:none" d="M 7.421875 -20.71875 L 12.75 -5.6875 L 18.046875 -20.71875 L 23.640625 -20.71875 L 23.640625 0 L 19.359375 0 L 19.359375 -5.65625 L 19.796875 -15.4375 L 14.203125 0 L 11.265625 0 L 5.6875 -15.421875 L 6.125 -5.65625 L 6.125 0 L 1.84375 0 L 1.84375 -20.71875 Z M 7.421875 -20.71875 "/></g></g><g style="fill:#286fb9;fill-opacity:1;"><g transform="translate(213.029917, 233.452528)"><path style="stroke:none" d="M 10.5 0 C 10.3125 -0.375 10.175781 -0.832031 10.09375 -1.375 C 9.09375 -0.269531 7.796875 0.28125 6.203125 0.28125 C 4.691406 0.28125 3.441406 -0.148438 2.453125 -1.015625 C 1.460938 -1.890625 0.96875 -2.992188 0.96875 -4.328125 C 0.96875 -5.953125 1.570312 -7.203125 2.78125 -8.078125 C 3.988281 -8.953125 5.738281 -9.394531 8.03125 -9.40625 L 9.921875 -9.40625 L 9.921875 -10.28125 C 9.921875 -11 9.738281 -11.570312 9.375 -12 C 9.007812 -12.425781 8.429688 -12.640625 7.640625 -12.640625 C 6.953125 -12.640625 6.410156 -12.472656 6.015625 -12.140625 C 5.617188 -11.804688 5.421875 -11.347656 5.421875 -10.765625 L 1.3125 -10.765625 C 1.3125 -11.660156 1.582031 -12.488281 2.125 -13.25 C 2.675781 -14.007812 3.453125 -14.601562 4.453125 -15.03125 C 5.460938 -15.46875 6.597656 -15.6875 7.859375 -15.6875 C 9.753906 -15.6875 11.257812 -15.207031 12.375 -14.25 C 13.488281 -13.289062 14.046875 -11.953125 14.046875 -10.234375 L 14.046875 -3.5625 C 14.054688 -2.09375 14.257812 -0.984375 14.65625 -0.234375 L 14.65625 0 Z M 7.09375 -2.859375 C 7.707031 -2.859375 8.269531 -2.992188 8.78125 -3.265625 C 9.289062 -3.535156 9.671875 -3.898438 9.921875 -4.359375 L 9.921875 -7 L 8.375 -7 C 6.320312 -7 5.226562 -6.285156 5.09375 -4.859375 L 5.078125 -4.625 C 5.078125 -4.113281 5.253906 -3.691406 5.609375 -3.359375 C 5.972656 -3.023438 6.46875 -2.859375 7.09375 -2.859375 Z M 7.09375 -2.859375 "/></g></g><g style="fill:#286fb9;fill-opacity:1;"><g transform="translate(228.655255, 233.452528)"><path style="stroke:none" d="M 5.359375 -15.390625 L 5.5 -13.609375 C 6.59375 -14.992188 8.066406 -15.6875 9.921875 -15.6875 C 11.546875 -15.6875 12.753906 -15.207031 13.546875 -14.25 C 14.347656 -13.289062 14.757812 -11.859375 14.78125 -9.953125 L 14.78125 0 L 10.671875 0 L 10.671875 -9.84375 C 10.671875 -10.71875 10.476562 -11.351562 10.09375 -11.75 C 9.71875 -12.144531 9.085938 -12.34375 8.203125 -12.34375 C 7.046875 -12.34375 6.179688 -11.847656 5.609375 -10.859375 L 5.609375 0 L 1.5 0 L 1.5 -15.390625 Z M 5.359375 -15.390625 "/></g></g><g style="fill:#286fb9;fill-opacity:1;"><g transform="translate(244.977906, 233.452528)"><path style="stroke:none" d="M 10.5 0 C 10.3125 -0.375 10.175781 -0.832031 10.09375 -1.375 C 9.09375 -0.269531 7.796875 0.28125 6.203125 0.28125 C 4.691406 0.28125 3.441406 -0.148438 2.453125 -1.015625 C 1.460938 -1.890625 0.96875 -2.992188 0.96875 -4.328125 C 0.96875 -5.953125 1.570312 -7.203125 2.78125 -8.078125 C 3.988281 -8.953125 5.738281 -9.394531 8.03125 -9.40625 L 9.921875 -9.40625 L 9.921875 -10.28125 C 9.921875 -11 9.738281 -11.570312 9.375 -12 C 9.007812 -12.425781 8.429688 -12.640625 7.640625 -12.640625 C 6.953125 -12.640625 6.410156 -12.472656 6.015625 -12.140625 C 5.617188 -11.804688 5.421875 -11.347656 5.421875 -10.765625 L 1.3125 -10.765625 C 1.3125 -11.660156 1.582031 -12.488281 2.125 -13.25 C 2.675781 -14.007812 3.453125 -14.601562 4.453125 -15.03125 C 5.460938 -15.46875 6.597656 -15.6875 7.859375 -15.6875 C 9.753906 -15.6875 11.257812 -15.207031 12.375 -14.25 C 13.488281 -13.289062 14.046875 -11.953125 14.046875 -10.234375 L 14.046875 -3.5625 C 14.054688 -2.09375 14.257812 -0.984375 14.65625 -0.234375 L 14.65625 0 Z M 7.09375 -2.859375 C 7.707031 -2.859375 8.269531 -2.992188 8.78125 -3.265625 C 9.289062 -3.535156 9.671875 -3.898438 9.921875 -4.359375 L 9.921875 -7 L 8.375 -7 C 6.320312 -7 5.226562 -6.285156 5.09375 -4.859375 L 5.078125 -4.625 C 5.078125 -4.113281 5.253906 -3.691406 5.609375 -3.359375 C 5.972656 -3.023438 6.46875 -2.859375 7.09375 -2.859375 Z M 7.09375 -2.859375 "/></g></g><g style="fill:#286fb9;fill-opacity:1;"><g transform="translate(260.603244, 233.452528)"><path style="stroke:none" d="M 0.984375 -7.8125 C 0.984375 -10.175781 1.546875 -12.078125 2.671875 -13.515625 C 3.796875 -14.960938 5.3125 -15.6875 7.21875 -15.6875 C 8.90625 -15.6875 10.21875 -15.101562 11.15625 -13.9375 L 11.328125 -15.390625 L 15.046875 -15.390625 L 15.046875 -0.515625 C 15.046875 0.835938 14.738281 2.007812 14.125 3 C 13.519531 4 12.660156 4.757812 11.546875 5.28125 C 10.441406 5.800781 9.144531 6.0625 7.65625 6.0625 C 6.53125 6.0625 5.429688 5.832031 4.359375 5.375 C 3.285156 4.925781 2.472656 4.347656 1.921875 3.640625 L 3.734375 1.140625 C 4.765625 2.285156 6.007812 2.859375 7.46875 2.859375 C 8.5625 2.859375 9.410156 2.566406 10.015625 1.984375 C 10.617188 1.398438 10.921875 0.570312 10.921875 -0.5 L 10.921875 -1.328125 C 9.972656 -0.253906 8.726562 0.28125 7.1875 0.28125 C 5.332031 0.28125 3.832031 -0.441406 2.6875 -1.890625 C 1.550781 -3.335938 0.984375 -5.253906 0.984375 -7.640625 Z M 5.09375 -7.515625 C 5.09375 -6.117188 5.367188 -5.023438 5.921875 -4.234375 C 6.484375 -3.441406 7.253906 -3.046875 8.234375 -3.046875 C 9.484375 -3.046875 10.378906 -3.515625 10.921875 -4.453125 L 10.921875 -10.921875 C 10.378906 -11.867188 9.492188 -12.34375 8.265625 -12.34375 C 7.273438 -12.34375 6.5 -11.9375 5.9375 -11.125 C 5.375 -10.320312 5.09375 -9.117188 5.09375 -7.515625 Z M 5.09375 -7.515625 "/></g></g><g style="fill:#286fb9;fill-opacity:1;"><g transform="translate(277.23897, 233.452528)"><path style="stroke:none" d="M 8.671875 0.28125 C 6.410156 0.28125 4.570312 -0.410156 3.15625 -1.796875 C 1.738281 -3.179688 1.03125 -5.023438 1.03125 -7.328125 L 1.03125 -7.71875 C 1.03125 -9.269531 1.328125 -10.65625 1.921875 -11.875 C 2.515625 -13.09375 3.359375 -14.03125 4.453125 -14.6875 C 5.554688 -15.351562 6.804688 -15.6875 8.203125 -15.6875 C 10.316406 -15.6875 11.976562 -15.019531 13.1875 -13.6875 C 14.394531 -12.363281 15 -10.484375 15 -8.046875 L 15 -6.359375 L 5.1875 -6.359375 C 5.320312 -5.359375 5.722656 -4.550781 6.390625 -3.9375 C 7.066406 -3.332031 7.914062 -3.03125 8.9375 -3.03125 C 10.519531 -3.03125 11.757812 -3.601562 12.65625 -4.75 L 14.671875 -2.484375 C 14.054688 -1.617188 13.222656 -0.941406 12.171875 -0.453125 C 11.117188 0.0351562 9.953125 0.28125 8.671875 0.28125 Z M 8.203125 -12.34375 C 7.378906 -12.34375 6.710938 -12.066406 6.203125 -11.515625 C 5.703125 -10.972656 5.378906 -10.1875 5.234375 -9.15625 L 10.953125 -9.15625 L 10.953125 -9.484375 C 10.929688 -10.398438 10.679688 -11.101562 10.203125 -11.59375 C 9.734375 -12.09375 9.066406 -12.34375 8.203125 -12.34375 Z M 8.203125 -12.34375 "/></g></g><g style="fill:#286fb9;fill-opacity:1;"><g transform="translate(292.99239, 233.452528)"><path style="stroke:none" d="M 10.234375 -11.546875 C 9.671875 -11.617188 9.175781 -11.65625 8.75 -11.65625 C 7.195312 -11.65625 6.175781 -11.128906 5.6875 -10.078125 L 5.6875 0 L 1.578125 0 L 1.578125 -15.390625 L 5.46875 -15.390625 L 5.578125 -13.5625 C 6.398438 -14.976562 7.539062 -15.6875 9 -15.6875 C 9.457031 -15.6875 9.882812 -15.625 10.28125 -15.5 Z M 10.234375 -11.546875 "/></g></g></g></svg>